<svg width="40" height="40" viewBox="0 0 40 40" fill="none" xmlns="http://www.w3.org/2000/svg">
<rect x="0.5" y="0.5" width="39" height="39" rx="19.5" fill="black"/>
<rect x="0.5" y="0.5" width="39" height="39" rx="19.5" stroke="black"/>
<path d="M11.2399 17.2444C11.3159 17.1669 11.4062 17.1054 11.5055 17.0635C11.6048 17.0216 11.7113 17 11.8188 17C11.9263 17 12.0328 17.0216 12.1321 17.0635C12.2314 17.1054 12.3216 17.1669 12.3976 17.2444L20.0001 24.9881L27.6026 17.2444C27.7561 17.088 27.9643 17.0002 28.1814 17.0002C28.3985 17.0002 28.6067 17.088 28.7602 17.2444C28.9138 17.4007 29 17.6128 29 17.8339C29 18.055 28.9138 18.267 28.7602 18.4234L20.5789 26.7556C20.5029 26.8331 20.4127 26.8946 20.3134 26.9365C20.2141 26.9784 20.1076 27 20.0001 27C19.8926 27 19.7861 26.9784 19.6868 26.9365C19.5875 26.8946 19.4972 26.8331 19.4213 26.7556L11.2399 18.4234C11.1639 18.346 11.1035 18.2541 11.0624 18.153C11.0212 18.0518 11 17.9434 11 17.8339C11 17.7244 11.0212 17.616 11.0624 17.5148C11.1035 17.4137 11.1639 17.3218 11.2399 17.2444Z" fill="white"/>
</svg>
