<svg width="45" height="45" viewBox="0 0 45 45" fill="none" xmlns="http://www.w3.org/2000/svg">
<g id="Clipboard">
<path id="Vector" d="M35.1562 4.92197H29.0865C28.2352 4.03302 27.2128 3.32559 26.0809 2.8423C24.9489 2.35901 23.7308 2.10986 22.5 2.10986C21.2692 2.10986 20.0511 2.35901 18.9191 2.8423C17.7872 3.32559 16.7648 4.03302 15.9135 4.92197H9.84375C8.91135 4.92197 8.01714 5.29237 7.35783 5.95168C6.69852 6.61098 6.32812 7.5052 6.32812 8.4376V37.9688C6.32813 38.9013 6.69852 39.7955 7.35783 40.4548C8.01714 41.1141 8.91135 41.4845 9.84375 41.4845H35.1562C36.0887 41.4845 36.9829 41.1141 37.6422 40.4548C38.3015 39.7955 38.6719 38.9013 38.6719 37.9688V8.4376C38.6719 7.5052 38.3015 6.61098 37.6422 5.95168C36.9829 5.29237 36.0887 4.92197 35.1562 4.92197ZM27.3709 10.547H17.6291C17.7989 9.37628 18.3847 8.3059 19.2792 7.5318C20.1737 6.75769 21.3171 6.33164 22.5 6.33164C23.6829 6.33164 24.8263 6.75769 25.7208 7.5318C26.6153 8.3059 27.2011 9.37628 27.3709 10.547ZM34.4531 37.2657H10.5469V9.14072H13.6072C13.4431 9.83187 13.36 10.5397 13.3594 11.2501V12.6563C13.3594 13.2158 13.5816 13.7523 13.9772 14.1479C14.3728 14.5435 14.9093 14.7657 15.4688 14.7657H29.5312C30.0907 14.7657 30.6272 14.5435 31.0228 14.1479C31.4184 13.7523 31.6406 13.2158 31.6406 12.6563V11.2501C31.64 10.5397 31.5569 9.83187 31.3928 9.14072H34.4531V37.2657Z" fill="#0B654A"/>
</g>
</svg>
