<svg width="38" height="25" viewBox="0 0 38 25" fill="none" xmlns="http://www.w3.org/2000/svg">
<path d="M7.42498 1.27656C7.31521 1.18138 7.18197 1.1039 7.03299 1.04862C6.884 0.993335 6.72223 0.961349 6.55706 0.954513C6.39188 0.947678 6.22659 0.966129 6.07075 1.0088C5.91491 1.05146 5.77163 1.1175 5.64922 1.20307C5.5268 1.28865 5.42769 1.39206 5.35761 1.50732C5.28754 1.62258 5.2479 1.74739 5.24099 1.87452C5.23409 2.00165 5.26006 2.12858 5.31739 2.24793C5.37472 2.36728 5.46228 2.4767 5.57499 2.56983L8.58123 5.1143C2.90624 7.79339 0.46561 11.9232 0.357798 12.1107C0.286724 12.2337 0.25 12.3667 0.25 12.5013C0.25 12.6359 0.286724 12.769 0.357798 12.8919C0.412485 12.9869 1.73592 15.2441 4.67811 17.5073C8.59842 20.5218 13.55 22.1155 19 22.1155C21.8009 22.1278 24.5736 21.6842 27.1359 20.8138L30.5734 23.7237C30.6832 23.8189 30.8164 23.8963 30.9654 23.9516C31.1144 24.0069 31.2762 24.0389 31.4413 24.0457C31.6065 24.0526 31.7718 24.0341 31.9277 23.9914C32.0835 23.9488 32.2268 23.8827 32.3492 23.7972C32.4716 23.7116 32.5707 23.6082 32.6408 23.4929C32.7109 23.3777 32.7505 23.2528 32.7574 23.1257C32.7643 22.9986 32.7383 22.8717 32.681 22.7523C32.6237 22.633 32.5361 22.5235 32.4234 22.4304L7.42498 1.27656ZM14.8203 10.3919L21.3312 15.9028C20.3508 16.2995 19.2267 16.4346 18.1357 16.2867C17.0446 16.1388 16.0483 15.7164 15.3031 15.0857C14.558 14.455 14.1063 13.6519 14.0189 12.8023C13.9315 11.9527 14.2134 11.1049 14.8203 10.3919ZM19 20.1924C14.1906 20.1924 9.98905 18.8475 6.51092 16.196C5.08329 15.1047 3.86908 13.8597 2.90623 12.5001C3.63905 11.4436 5.97811 8.4869 10.3047 6.56502L13.1172 8.93882C12.0283 10.0115 11.4675 11.3458 11.5339 12.7059C11.6003 14.0659 12.2897 15.364 13.48 16.3709C14.6704 17.3778 16.2852 18.0285 18.039 18.2081C19.7928 18.3877 21.5727 18.0846 23.064 17.3523L25.3656 19.2994C23.3343 19.8989 21.1756 20.2017 19 20.1924ZM19.9375 8.72247C19.6118 8.67466 19.3241 8.52927 19.1377 8.31829C18.9514 8.10731 18.8816 7.84803 18.9437 7.59747C19.0059 7.34692 19.1949 7.12562 19.4692 6.98227C19.7434 6.83891 20.0805 6.78523 20.4062 6.83305C21.9994 7.07063 23.45 7.69801 24.5417 8.62162C25.6334 9.54522 26.3077 10.7156 26.464 11.9581C26.4949 12.2119 26.3934 12.4649 26.1818 12.6612C25.9703 12.8575 25.666 12.9812 25.3359 13.0049C25.2969 13.0067 25.2578 13.0067 25.2187 13.0049C24.9063 13.006 24.6047 12.9169 24.3733 12.7554C24.142 12.5939 23.9976 12.3716 23.9687 12.1323C23.8635 11.3059 23.4144 10.5276 22.6881 9.91327C21.9618 9.29892 20.9971 8.88129 19.9375 8.72247ZM37.6375 12.8919C37.5719 13.0049 35.989 15.7008 32.425 18.1564C32.3032 18.2429 32.1602 18.31 32.0044 18.3537C31.8486 18.3973 31.6831 18.4167 31.5174 18.4107C31.3518 18.4046 31.1894 18.3733 31.0396 18.3185C30.8899 18.2637 30.7558 18.1866 30.6452 18.0915C30.5346 17.9965 30.4497 17.8855 30.3954 17.7649C30.3412 17.6444 30.3186 17.5168 30.3291 17.3895C30.3396 17.2622 30.3829 17.1377 30.4565 17.0234C30.5301 16.9091 30.6325 16.8072 30.7578 16.7237C32.5063 15.5153 33.9751 14.0871 35.1015 12.5001C34.1366 11.1393 32.9197 9.89349 31.489 8.8018C28.0109 6.15276 23.8094 4.80781 19 4.80781C17.9866 4.80686 16.9749 4.86997 15.975 4.99651C15.8124 5.01863 15.6457 5.01575 15.4845 4.98803C15.3234 4.96032 15.171 4.90831 15.0361 4.83503C14.9012 4.76174 14.7866 4.66863 14.6988 4.56106C14.6109 4.45349 14.5517 4.33361 14.5244 4.20833C14.4972 4.08305 14.5025 3.95486 14.54 3.83116C14.5775 3.70746 14.6465 3.59071 14.7431 3.48764C14.8396 3.38458 14.9617 3.29725 15.1023 3.23069C15.243 3.16414 15.3994 3.11967 15.5625 3.09988C16.6987 2.95557 17.8484 2.88361 19 2.88473C24.45 2.88473 29.4015 4.47848 33.3219 7.49411C36.264 9.75733 37.5875 12.0157 37.6422 12.1107C37.7132 12.2337 37.75 12.3667 37.75 12.5013C37.75 12.6359 37.7132 12.769 37.6422 12.8919H37.6375Z" fill="black"/>
</svg>
