<svg width="201" height="200" viewBox="0 0 201 200" fill="none" xmlns="http://www.w3.org/2000/svg">
<path d="M100.5 0C80.7219 0 61.3879 5.8649 44.943 16.853C28.4981 27.8412 15.6809 43.459 8.11209 61.7316C0.543329 80.0042 -1.437 100.111 2.42152 119.509C6.28004 138.907 15.8041 156.725 29.7894 170.711C43.7746 184.696 61.5929 194.22 80.991 198.078C100.389 201.937 120.496 199.957 138.768 192.388C157.041 184.819 172.659 172.002 183.647 155.557C194.635 139.112 200.5 119.778 200.5 100C200.472 73.4869 189.927 48.0678 171.18 29.3202C152.432 10.5727 127.013 0.0279983 100.5 0ZM100.5 184.615C83.7647 184.615 67.4052 179.653 53.4902 170.355C39.5753 161.057 28.73 147.842 22.3256 132.381C15.9213 116.919 14.2456 99.9061 17.5105 83.4923C20.7754 67.0786 28.8343 52.0016 40.6679 40.1679C52.5016 28.3342 67.5786 20.2754 83.9924 17.0105C100.406 13.7456 117.419 15.4212 132.881 21.8256C148.342 28.2299 161.557 39.0753 170.855 52.9902C180.153 66.9051 185.115 83.2646 185.115 100C185.09 122.434 176.167 143.941 160.304 159.804C144.441 175.667 122.934 184.59 100.5 184.615ZM159.788 94.5577C160.503 95.2724 161.07 96.1208 161.457 97.0546C161.844 97.9884 162.043 98.9892 162.043 100C162.043 101.011 161.844 102.012 161.457 102.945C161.07 103.879 160.503 104.728 159.788 105.442C159.074 106.157 158.225 106.724 157.292 107.111C156.358 107.497 155.357 107.697 154.346 107.697C153.335 107.697 152.335 107.497 151.401 107.111C150.467 106.724 149.619 106.157 148.904 105.442L138.962 95.4904L129.019 105.442C127.576 106.886 125.618 107.697 123.577 107.697C121.536 107.697 119.578 106.886 118.135 105.442C116.691 103.999 115.88 102.041 115.88 100C115.88 97.9587 116.691 96.0011 118.135 94.5577L128.087 84.6154L118.135 74.6731C116.691 73.2297 115.88 71.272 115.88 69.2308C115.88 67.1895 116.691 65.2318 118.135 63.7884C119.578 62.3451 121.536 61.5342 123.577 61.5342C125.618 61.5342 127.576 62.3451 129.019 63.7884L138.962 73.7404L148.904 63.7884C149.619 63.0737 150.467 62.5068 151.401 62.12C152.335 61.7332 153.335 61.5342 154.346 61.5342C155.357 61.5342 156.358 61.7332 157.292 62.12C158.225 62.5068 159.074 63.0737 159.788 63.7884C160.503 64.5031 161.07 65.3516 161.457 66.2854C161.844 67.2192 162.043 68.22 162.043 69.2308C162.043 70.2415 161.844 71.2423 161.457 72.1761C161.07 73.1099 160.503 73.9584 159.788 74.6731L149.837 84.6154L159.788 94.5577ZM82.8654 74.6731L72.9135 84.6154L82.8654 94.5577C84.3088 96.0011 85.1197 97.9587 85.1197 100C85.1197 102.041 84.3088 103.999 82.8654 105.442C81.422 106.886 79.4644 107.697 77.4231 107.697C75.3818 107.697 73.4242 106.886 71.9808 105.442L62.0385 95.4904L52.0962 105.442C50.6528 106.886 48.6951 107.697 46.6539 107.697C44.6126 107.697 42.655 106.886 41.2116 105.442C39.7682 103.999 38.9573 102.041 38.9573 100C38.9573 97.9587 39.7682 96.0011 41.2116 94.5577L51.1635 84.6154L41.2116 74.6731C39.7682 73.2297 38.9573 71.272 38.9573 69.2308C38.9573 67.1895 39.7682 65.2318 41.2116 63.7884C42.655 62.3451 44.6126 61.5342 46.6539 61.5342C48.6951 61.5342 50.6528 62.3451 52.0962 63.7884L62.0385 73.7404L71.9808 63.7884C73.4242 62.3451 75.3818 61.5342 77.4231 61.5342C79.4644 61.5342 81.422 62.3451 82.8654 63.7884C84.3088 65.2318 85.1197 67.1895 85.1197 69.2308C85.1197 71.272 84.3088 73.2297 82.8654 74.6731ZM112.038 150C112.038 152.282 111.362 154.513 110.094 156.41C108.826 158.308 107.024 159.787 104.916 160.66C102.807 161.533 100.487 161.762 98.249 161.317C96.0107 160.872 93.9548 159.773 92.3411 158.159C90.7274 156.545 89.6285 154.489 89.1833 152.251C88.7381 150.013 88.9666 147.693 89.8399 145.584C90.7132 143.476 92.1921 141.674 94.0896 140.406C95.9871 139.138 98.2179 138.462 100.5 138.462C103.56 138.462 106.495 139.677 108.659 141.841C110.823 144.005 112.038 146.94 112.038 150Z" fill="#EC453F"/>
</svg>
