<svg width="25" height="25" viewBox="0 0 25 25" fill="none" xmlns="http://www.w3.org/2000/svg">
<g id="PencilLine">
<path id="Vector" d="M22.0615 7.30381L17.6973 2.93955C17.5703 2.81258 17.4196 2.71186 17.2537 2.64315C17.0878 2.57443 16.91 2.53906 16.7305 2.53906C16.5509 2.53906 16.3731 2.57443 16.2072 2.64315C16.0414 2.71186 15.8906 2.81258 15.7637 2.93955L3.72071 14.9815C3.59349 15.1083 3.49262 15.259 3.42391 15.4249C3.35519 15.5909 3.31998 15.7687 3.32031 15.9483V20.3126C3.32031 20.6752 3.46436 21.0229 3.72075 21.2793C3.97715 21.5357 4.3249 21.6798 4.6875 21.6798H21.0938C21.2492 21.6798 21.3982 21.6181 21.5081 21.5082C21.618 21.3983 21.6797 21.2493 21.6797 21.0938C21.6797 20.9384 21.618 20.7894 21.5081 20.6795C21.3982 20.5696 21.2492 20.5079 21.0938 20.5079H10.79L22.0615 9.2374C22.1885 9.11045 22.2892 8.95972 22.3579 8.79384C22.4266 8.62795 22.462 8.45016 22.462 8.27061C22.462 8.09105 22.4266 7.91326 22.3579 7.74737C22.2892 7.58149 22.1885 7.43077 22.0615 7.30381ZM7.46973 18.3595L16.0156 9.8126L17.9219 11.7188L9.375 20.2647L7.46973 18.3595ZM6.64063 17.5314L4.73535 15.6251L13.2813 7.0792L15.1875 8.98447L6.64063 17.5314ZM4.49219 20.3126V17.0392L7.96094 20.5079H4.6875C4.6357 20.5079 4.58602 20.4873 4.5494 20.4507C4.51277 20.4141 4.49219 20.3644 4.49219 20.3126ZM21.2324 8.4083L18.75 10.8907L14.1104 6.2501L16.5918 3.76865C16.6099 3.75049 16.6315 3.73609 16.6552 3.72626C16.6789 3.71643 16.7043 3.71137 16.73 3.71137C16.7557 3.71137 16.7811 3.71643 16.8048 3.72626C16.8285 3.73609 16.85 3.75049 16.8682 3.76865L21.2324 8.13193C21.2506 8.15007 21.265 8.17162 21.2748 8.19533C21.2846 8.21904 21.2897 8.24445 21.2897 8.27012C21.2897 8.29579 21.2846 8.3212 21.2748 8.34491C21.265 8.36862 21.2506 8.39016 21.2324 8.4083Z" fill="#0B654A"/>
</g>
</svg>
