<svg width="300" height="300" viewBox="0 0 300 300" fill="none" xmlns="http://www.w3.org/2000/svg">
<g clip-path="url(#clip0_586_13128)">
<path opacity="0.2" d="M150 262.5C212.132 262.5 262.5 212.132 262.5 150C262.5 87.868 212.132 37.5 150 37.5C87.868 37.5 37.5 87.868 37.5 150C37.5 212.132 87.868 262.5 150 262.5Z" fill="#0B654A"/>
<path d="M103.125 159.375L131.25 187.5L196.875 121.875" stroke="#0B654A" stroke-width="8" stroke-linecap="round" stroke-linejoin="round"/>
<path d="M150 262.5C212.132 262.5 262.5 212.132 262.5 150C262.5 87.868 212.132 37.5 150 37.5C87.868 37.5 37.5 87.868 37.5 150C37.5 212.132 87.868 262.5 150 262.5Z" stroke="#0B654A" stroke-width="8" stroke-linecap="round" stroke-linejoin="round"/>
</g>
<defs>
<clipPath id="clip0_586_13128">
<rect width="300" height="300" fill="white"/>
</clipPath>
</defs>
</svg>
