<svg width="30" height="21" viewBox="0 0 30 21" fill="none" xmlns="http://www.w3.org/2000/svg">
<path d="M29.9137 10.095C29.87 9.99625 28.8112 7.6475 26.4575 5.29375C23.3212 2.1575 19.36 0.5 15 0.5C10.64 0.5 6.67874 2.1575 3.54249 5.29375C1.18874 7.6475 0.124988 10 0.086238 10.095C0.0293795 10.2229 0 10.3613 0 10.5012C0 10.6412 0.0293795 10.7796 0.086238 10.9075C0.129988 11.0062 1.18874 13.3538 3.54249 15.7075C6.67874 18.8425 10.64 20.5 15 20.5C19.36 20.5 23.3212 18.8425 26.4575 15.7075C28.8112 13.3538 29.87 11.0062 29.9137 10.9075C29.9706 10.7796 30 10.6412 30 10.5012C30 10.3613 29.9706 10.2229 29.9137 10.095ZM15 18.5C11.1525 18.5 7.79124 17.1012 5.00874 14.3438C3.86704 13.2084 2.89572 11.9137 2.12499 10.5C2.89551 9.08617 3.86686 7.79147 5.00874 6.65625C7.79124 3.89875 11.1525 2.5 15 2.5C18.8475 2.5 22.2087 3.89875 24.9912 6.65625C26.1352 7.7912 27.1086 9.0859 27.8812 10.5C26.98 12.1825 23.0537 18.5 15 18.5ZM15 4.5C13.8133 4.5 12.6533 4.85189 11.6666 5.51118C10.6799 6.17047 9.91084 7.10754 9.45671 8.2039C9.00259 9.30026 8.88377 10.5067 9.11528 11.6705C9.34679 12.8344 9.91823 13.9035 10.7573 14.7426C11.5965 15.5818 12.6656 16.1532 13.8294 16.3847C14.9933 16.6162 16.1997 16.4974 17.2961 16.0433C18.3924 15.5892 19.3295 14.8201 19.9888 13.8334C20.6481 12.8467 21 11.6867 21 10.5C20.9983 8.90921 20.3657 7.38405 19.2408 6.25919C18.1159 5.13433 16.5908 4.50165 15 4.5ZM15 14.5C14.2089 14.5 13.4355 14.2654 12.7777 13.8259C12.1199 13.3864 11.6072 12.7616 11.3045 12.0307C11.0017 11.2998 10.9225 10.4956 11.0768 9.71964C11.2312 8.94372 11.6122 8.23098 12.1716 7.67157C12.731 7.11216 13.4437 6.7312 14.2196 6.57686C14.9956 6.42252 15.7998 6.50173 16.5307 6.80448C17.2616 7.10723 17.8863 7.61992 18.3259 8.27772C18.7654 8.93552 19 9.70887 19 10.5C19 11.5609 18.5786 12.5783 17.8284 13.3284C17.0783 14.0786 16.0609 14.5 15 14.5Z" fill="black"/>
</svg>
