<svg width="33" height="32" viewBox="0 0 33 32" fill="none" xmlns="http://www.w3.org/2000/svg">
<g id="gmail">
<path id="Vector" d="M2.5 11.9556C2.5 8.47078 2.5 6.7284 3.17818 5.39739C3.77473 4.22661 4.72661 3.27473 5.89739 2.67818C7.2284 2 8.97078 2 12.4556 2H20.5444C24.0292 2 25.7716 2 27.1026 2.67818C28.2734 3.27473 29.2253 4.22661 29.8218 5.39739C30.5 6.7284 30.5 8.47078 30.5 11.9556V20.0444C30.5 23.5292 30.5 25.2716 29.8218 26.6026C29.2253 27.7734 28.2734 28.7253 27.1026 29.3218C25.7716 30 24.0292 30 20.5444 30H12.4556C8.97078 30 7.2284 30 5.89739 29.3218C4.72661 28.7253 3.77473 27.7734 3.17818 26.6026C2.5 25.2716 2.5 23.5292 2.5 20.0444V11.9556Z" fill="white"/>
<path id="Vector_2" d="M22.5515 8.52344L16.5644 13.1959L10.4404 8.52344V8.5247L10.4478 8.53102V15.0737L16.4954 19.8471L22.5515 15.258V8.52344Z" fill="#EA4335"/>
<path id="Vector_3" d="M24.1241 7.38639L22.5518 8.52292V15.2575L27.4993 11.459V9.17074C27.4993 9.17074 26.8987 5.90258 24.1241 7.38639Z" fill="#FBBC05"/>
<path id="Vector_4" d="M22.5518 15.2576V23.9925H26.3438C26.3438 23.9925 27.4228 23.8813 27.5005 22.6513V11.459L22.5518 15.2576Z" fill="#34A853"/>
<path id="Vector_5" d="M10.4481 23.9995V15.0727L10.4404 15.0664L10.4481 23.9995Z" fill="#C5221F"/>
<path id="Vector_6" d="M10.4401 8.52453L8.87646 7.39431C6.10179 5.9105 5.5 9.1774 5.5 9.1774V11.4656L10.4401 15.0671V8.52453Z" fill="#C5221F"/>
<path id="Vector_7" d="M10.4404 8.52441V15.067L10.4481 15.0733V8.53072L10.4404 8.52441Z" fill="#C5221F"/>
<path id="Vector_8" d="M5.5 11.4668V22.6591C5.57646 23.8903 6.65673 24.0002 6.65673 24.0002H10.4488L10.4401 15.067L5.5 11.4668Z" fill="#4285F4"/>
</g>
</svg>
