<svg width="50" height="50" viewBox="0 0 50 50" fill="none" xmlns="http://www.w3.org/2000/svg">
<g id="MoneyWavy">
<path id="Vector" d="M47.7031 11.7195C47.4782 11.5791 47.2212 11.4982 46.9564 11.4846C46.6916 11.4709 46.4277 11.5248 46.1895 11.6413C37.8047 15.7429 31.8164 13.821 25.4863 11.7937C18.8281 9.67453 11.9531 7.47726 2.43945 12.1218C2.17671 12.2501 1.95524 12.4495 1.80021 12.6974C1.64518 12.9453 1.56282 13.2318 1.5625 13.5241V36.948C1.56246 37.2131 1.62988 37.4738 1.75841 37.7057C1.88693 37.9376 2.07234 38.1329 2.29719 38.2734C2.52203 38.4138 2.77892 38.4948 3.04366 38.5086C3.30841 38.5224 3.57232 38.4686 3.81055 38.3523C12.1953 34.2507 18.1836 36.1726 24.5234 38.1999C28.2812 39.4011 32.1094 40.6257 36.4375 40.6257C39.7754 40.6257 43.416 39.8991 47.5527 37.8796C47.8155 37.7513 48.037 37.5519 48.192 37.304C48.347 37.0561 48.4294 36.7696 48.4297 36.4773V13.0534C48.432 12.7876 48.3666 12.5256 48.2394 12.2922C48.1123 12.0588 47.9277 11.8616 47.7031 11.7195ZM9.375 29.6882C9.375 30.1026 9.21038 30.5 8.91735 30.7931C8.62433 31.0861 8.2269 31.2507 7.8125 31.2507C7.3981 31.2507 7.00067 31.0861 6.70765 30.7931C6.41462 30.5 6.25 30.1026 6.25 29.6882V17.1882C6.25 16.7738 6.41462 16.3764 6.70765 16.0833C7.00067 15.7903 7.3981 15.6257 7.8125 15.6257C8.2269 15.6257 8.62433 15.7903 8.91735 16.0833C9.21038 16.3764 9.375 16.7738 9.375 17.1882V29.6882ZM25 31.2507C23.7639 31.2507 22.5555 30.8841 21.5277 30.1974C20.4999 29.5106 19.6988 28.5345 19.2258 27.3925C18.7527 26.2504 18.6289 24.9938 18.8701 23.7814C19.1112 22.569 19.7065 21.4554 20.5806 20.5813C21.4547 19.7072 22.5683 19.112 23.7807 18.8708C24.9931 18.6296 26.2497 18.7534 27.3918 19.2265C28.5338 19.6995 29.5099 20.5006 30.1967 21.5284C30.8834 22.5562 31.25 23.7646 31.25 25.0007C31.25 26.6583 30.5915 28.248 29.4194 29.4201C28.2473 30.5922 26.6576 31.2507 25 31.2507ZM43.75 32.8132C43.75 33.2276 43.5854 33.625 43.2924 33.9181C42.9993 34.2111 42.6019 34.3757 42.1875 34.3757C41.7731 34.3757 41.3757 34.2111 41.0826 33.9181C40.7896 33.625 40.625 33.2276 40.625 32.8132V20.3132C40.625 19.8988 40.7896 19.5014 41.0826 19.2083C41.3757 18.9153 41.7731 18.7507 42.1875 18.7507C42.6019 18.7507 42.9993 18.9153 43.2924 19.2083C43.5854 19.5014 43.75 19.8988 43.75 20.3132V32.8132Z" fill="#0B654A"/>
</g>
</svg>
