<svg width="239" height="180" viewBox="0 0 239 180" fill="none" xmlns="http://www.w3.org/2000/svg">
<path id="Vector" d="M229.808 0.191406H9.19231C6.75436 0.191406 4.41626 1.13568 2.69236 2.81651C0.968472 4.49733 0 6.77701 0 9.15406V161.519C0 166.273 1.93694 170.833 5.38473 174.194C8.83251 177.556 13.5087 179.444 18.3846 179.444H220.615C225.491 179.444 230.167 177.556 233.615 174.194C237.063 170.833 239 166.273 239 161.519V9.15406C239 6.77701 238.032 4.49733 236.308 2.81651C234.584 1.13568 232.246 0.191406 229.808 0.191406ZM85.8447 89.8179L18.3846 150.103V29.5329L85.8447 89.8179ZM99.4493 101.974L113.238 114.353C114.934 115.871 117.152 116.713 119.454 116.713C121.756 116.713 123.974 115.871 125.67 114.353L139.459 101.974L206.103 161.519H32.828L99.4493 101.974ZM153.155 89.8179L220.615 29.5217V150.114L153.155 89.8179Z" fill="#0B654A"/>
</svg>
